<svg preserveAspectRatio="none" width="100%" height="100%" overflow="visible" style="display: block;" viewBox="0 0 44 44" fill="none" xmlns="http://www.w3.org/2000/svg">
<path id="Vector" d="M25.6735 21.6173L20.5265 19.2156C20.0773 19.0071 19.7083 19.2408 19.7083 19.7381V24.2619C19.7083 24.7592 20.0773 24.9929 20.5265 24.7844L25.6712 22.3827C26.1227 22.1719 26.1227 21.8281 25.6735 21.6173ZM22 0C9.84958 0 0 9.84958 0 22C0 34.1504 9.84958 44 22 44C34.1504 44 44 34.1504 44 22C44 9.84958 34.1504 0 22 0ZM22 30.9375C10.7388 30.9375 10.5417 29.9223 10.5417 22C10.5417 14.0777 10.7388 13.0625 22 13.0625C33.2612 13.0625 33.4583 14.0777 33.4583 22C33.4583 29.9223 33.2612 30.9375 22 30.9375Z" fill="var(--fill-0, #0B74D7)"/>
</svg>
